<svg xmlns="http://www.w3.org/2000/svg" width="32" height="32" viewBox="0 0 32 32" role="img" aria-label="TokenGate">
  <defs>
    <linearGradient id="fgGrad" x1="3" y1="2" x2="29" y2="30" gradientUnits="userSpaceOnUse">
      <stop offset="0" stop-color="#0A6BFF"/>
      <stop offset="1" stop-color="#14B86A"/>
    </linearGradient>
  </defs>

  <!-- Shield -->
  <path
    d="M16 2
       C12 5 8 6 5 7
       V16
       C5 23 10 28 16 30
       C22 28 27 23 27 16
       V7
       C24 6 20 5 16 2 Z"
    fill="url(#fgGrad)" />

  <!-- Keyhole circle -->
  <circle cx="16" cy="15" r="3.5" fill="#FFFFFF"/>

  <!-- Keyhole stem -->
  <path d="M16 18.5 C14.5 18.5 13.5 19.5 13.5 21 V24 C13.5 25 14.5 26 16 26 C17.5 26 18.5 25 18.5 24 V21 C18.5 19.5 17.5 18.5 16 18.5 Z"
        fill="#FFFFFF"/>
</svg>
